<?xml version="1.0" encoding="UTF-8" standalone="no"?>
<svg width="24px" height="24px" viewBox="0 0 24 24" version="1.1" xmlns="http://www.w3.org/2000/svg" xmlns:xlink="http://www.w3.org/1999/xlink">
    <!-- Generator: Sketch 42 (36781) - http://www.bohemiancoding.com/sketch -->
    <title>QE</title>
    <desc>Created with Sketch.</desc>
    <defs></defs>
    <g id="Page-1" stroke="none" stroke-width="1" fill="none" fill-rule="evenodd">
        <g id="QE">
            <circle id="Oval" fill="#54A4FF" cx="12" cy="12" r="12"></circle>
            <path d="M11.7754615,7.67 C9.87146151,7.67 8.80746151,9.266 8.80746151,11.366 C8.80746151,13.662 10.0394615,15.118 11.8594615,15.118 C13.5114615,15.132 14.7714615,13.844 14.7714615,11.394 C14.7714615,9.182 13.5674615,7.67 11.7754615,7.67 Z M11.8174615,6.662 C14.3794615,6.662 16.0034615,8.72 16.0034615,11.324 C16.0034615,13.69 14.9674615,15.006 13.9594615,15.552 C14.6734615,16.126 15.9894615,17.106 16.9414615,17.68 C16.9834615,17.708 16.9694615,17.834 16.9414615,17.848 L15.6254615,17.988 C15.5694615,18.002 15.5134615,17.988 15.4854615,17.96 C14.9954615,17.68 13.7774615,16.784 12.7974615,15.986 C12.5594615,16.098 12.1254615,16.14 11.8454615,16.14 C9.17146151,16.14 7.57546151,14.096 7.57546151,11.422 C7.57546151,8.454 9.38146151,6.662 11.8174615,6.662 Z" id="Q" fill="#FFFFFF"></path>
        </g>
    </g>
</svg>